<?xml version="1.0" encoding="utf-8"?>
<!-- Generator: Adobe Illustrator 15.0.0, SVG Export Plug-In . SVG Version: 6.00 Build 0)  -->
<!DOCTYPE svg PUBLIC "-//W3C//DTD SVG 1.1//EN" "http://www.w3.org/Graphics/SVG/1.1/DTD/svg11.dtd">
<svg version="1.1" id="Layer_1" xmlns="http://www.w3.org/2000/svg" xmlns:xlink="http://www.w3.org/1999/xlink" x="0px" y="0px"
	 width="1624px" height="500px" viewBox="0 0 1624 500" enable-background="new 0 0 1624 500" xml:space="preserve">
<title>Sterling Copy</title>
<desc>Created with Sketch.</desc>
<g id="Page-1">
	<g id="Sterling-Copy">
		<g id="Group" transform="translate(0.138198, 0.000000)">
			<path id="Fill-1" fill="#D92128" d="M243.997,0C382.069,0,494,111.929,494,250S382.069,500,243.997,500
				C105.929,500-6,388.07-6,250S105.929,0,243.997,0z"/>
			<path id="Fill-2" fill="#FFFFFF" d="M327.333,78.109c40.115,0,72.637,32.521,72.637,72.638s-32.521,72.637-72.637,72.637
				c-40.117,0-72.637-32.521-72.637-72.637S287.216,78.109,327.333,78.109"/>
		</g>
		<path id="Fill-3" fill="#FFFFFF" d="M711.544,384.439c0-27.544-18.26-47.004-55.673-54.788
			c-38.311-8.083-47.891-15.567-47.891-27.842c0-15.868,11.675-26.348,43.401-26.348c22.446,0,40.706,6.587,53.277,20.06h1.198
			v-18.859c0-17.065-13.77-37.425-61.662-37.425c-48.188,0-76.923,32.334-76.923,66.463c0,27.844,19.754,45.208,54.475,52.691
			c43.402,9.282,48.791,15.568,48.791,29.64c0,16.466-9.877,26.944-40.708,26.944c-24.842,0-43.398-9.88-57.169-22.154h-0.896
			v18.264c0,24.248,21.25,40.415,62.554,40.415C684.007,451.5,711.544,424.854,711.544,384.439z M738.531,292.826v97.002
			c0,37.721,19.755,59.878,60.463,59.878c23.347,0,35.319-10.481,35.319-26.946v-14.372h-1.497
			c-6.285,3.893-16.162,5.691-29.031,5.691c-16.165,0-25.446-8.084-25.446-29.042v-63.17h32.029
			c16.46,0,23.945-10.776,23.945-19.161V286.24h-55.975v-36.524h-9.278c-6.287,0-13.47,4.789-18.858,11.077
			C741.524,270.97,738.531,276.96,738.531,292.826z M987.013,345.22c0-38.621-31.129-62.571-64.654-62.571
			c-46.094,0-79.018,33.83-79.018,87.718c0,49.398,39.211,81.133,79.32,81.133c44.3,0,58.367-15.867,58.367-36.524v-12.574h-1.501
			c-12.868,11.976-32.623,15.271-49.387,15.271c-23.647,0-42.205-12.875-45.197-33.232h26.339
			C964.563,384.439,987.013,374.859,987.013,345.22z M949.297,340.428c0,11.376-8.679,15.568-46.693,15.568h-17.956l0.296-5.389
			c0.902-18.563,14.367-34.428,33.823-34.428C937.324,316.18,949.297,324.261,949.297,340.428z M1103.496,325.46v-14.369
			c0-12.274-8.683-26.347-33.525-26.347c-42.502,0-59.562,30.835-59.562,63.171v74.245c0,16.766,11.373,25.748,29.33,25.748h11.076
			v-92.809c0-24.549,9.877-34.431,27.835-34.431c10.476,0,17.36,2.398,23.35,4.791H1103.496z M1198.129,425.154v-8.681h-10.773
			c-18.858,0-27.239-5.09-27.239-21.257V259.296c0-15.269-8.679-26.945-28.734-26.945h-11.374v166.76
			c0,32.631,17.962,50.296,51.186,50.296C1188.852,449.406,1198.129,442.52,1198.129,425.154z M1257.147,251.212
			c0-12.871-10.773-23.351-23.647-23.351c-12.87,0-23.346,10.479-23.346,23.351c0,12.874,10.476,23.652,23.346,23.652
			C1246.373,274.864,1257.147,264.086,1257.147,251.212z M1285.883,425.154v-8.681h-7.486c-17.658,0-24.545-5.09-24.545-21.257
			V319.77c0-20.355-10.773-29.938-28.734-29.938h-11.373c0,0,0,99.995,0,109.277c0,32.631,17.06,50.296,48.192,50.296
			C1278.996,449.406,1285.883,442.52,1285.883,425.154z M1443.069,447.908v-94.007c0-45.807-31.424-71.252-69.438-71.252
			c-50.287,0-72.736,35.026-72.736,69.155v69.758c0,14.969,11.074,26.346,28.14,26.346h11.972v-93.409
			c0-23.051,11.974-36.224,29.331-36.224c20.651,0,32.624,11.977,32.624,39.22v64.067c0,14.969,11.374,26.346,29.337,26.346
			H1443.069z M1615.826,380.844v-27.541c0-41.315-25.74-70.654-65.848-70.654c-52.083,0-82.012,36.823-82.012,82.33
			c0,38.021,27.833,65.267,67.041,65.267c23.049,0,38.316-12.275,41.605-23.951v3.891c0,1.498,0.302,5.687,0.302,8.085
			c0.298,2.693,0.298,5.986,0.298,8.382c0,23.352-13.168,37.123-42.205,37.123c-23.045,0-41.604-7.185-51.18-17.366h-1.798v18.266
			c0,19.161,22.747,35.325,55.976,35.325c52.08,0,79.018-36.225,79.018-76.641c0-5.389-0.302-14.072-0.599-20.659
			C1616.123,395.516,1615.826,386.236,1615.826,380.844z M1545.486,318.275c17.663,0,30.23,12.275,30.23,37.423
			c0,25.746-14.364,40.715-34.422,40.715c-19.154,0-32.023-15.568-32.023-36.525
			C1509.271,335.639,1524.834,318.275,1545.486,318.275L1545.486,318.275z"/>
	</g>
</g>
<rect x="1622.5" y="9.5" fill="none" width="166" height="242"/>
<rect x="506.5" y="30.5" fill="none" width="1134" height="493"/>
<text transform="matrix(1 0 0 1 506.5002 207.9978)" fill="#FFFFFF" stroke="#000000" stroke-miterlimit="10" font-family="'MyriadPro-Regular'" font-size="250">OneAVC</text>
</svg>
